<svg xmlns="http://www.w3.org/2000/svg" viewBox="0 0 168.83 83.95"><defs><style>.cls-1{fill:#3d491d;}.cls-2{fill:#799941;}</style></defs><g id="Слой_2" data-name="Слой 2"><g id="OBJECTS"><polygon class="cls-1" points="29.99 57.48 29.99 31.48 0 31.48 3.77 44.37 0 57.48 29.99 57.48"/><polygon class="cls-1" points="138.84 57.48 138.84 31.48 168.83 31.48 165.07 44.37 168.83 57.48 138.84 57.48"/><path class="cls-2" d="M95.86,72.91h-33a3.36,3.36,0,0,1-3.35-3.35h0a3.36,3.36,0,0,1,3.35-3.35h33a3.36,3.36,0,0,1,3.35,3.35h0A3.36,3.36,0,0,1,95.86,72.91Z"/><path class="cls-1" d="M120.18,12.71c-11.11.4-17.72,5.46-21.6,10.73.06-4-1.23-8.77-5.33-14.2,0,0-9.63,12.22-3.07,22.72q1.47-.26,2.85-.57l.24-13.93L95,30.9c14.43-3.86,20.14-12.1,20.14-12.1-9.18,17.88-37,14.06-37,14.06a56.68,56.68,0,0,0,16.33,2.85,37.88,37.88,0,0,0,8.65-.45h.12C122.09,31.75,120.18,12.71,120.18,12.71Z"/><path class="cls-2" d="M116.85,42.18a9.19,9.19,0,0,0-4.58-.45.79.79,0,0,1-.92-.85c.1-1,.15-2,.16-3.07a28.6,28.6,0,0,1-7,2.28,4.51,4.51,0,0,1-.53.1h-.07a39.84,39.84,0,0,1-6.93.57c-.87,0-1.77,0-2.69-.07a63.44,63.44,0,0,1-17.15-2.91l-30,0a32.1,32.1,0,0,0,57.27,20,.8.8,0,0,1,1.27,0,10,10,0,0,0,18-5.89A10.18,10.18,0,0,0,116.85,42.18Zm1.63,10.46a4.88,4.88,0,1,1-5.74-5.74A4.87,4.87,0,0,1,118.48,52.64Z"/><path class="cls-2" d="M138.87,22.12c-.09-.29-.17-.57-.26-.85l11.44-3.61c.11.35.22.7.32,1.05Z"/><path class="cls-2" d="M137.08,17c-.11-.28-.22-.55-.34-.82l11.08-4.63c.14.34.28.68.41,1Z"/><path class="cls-2" d="M134.84,12l-.42-.81L145,5.63c.17.32.34.64.5,1Z"/><path class="cls-2" d="M132.16,7.31l-.5-.77L141.72,0c.2.3.39.6.58.9Z"/><path class="cls-2" d="M30.56,61.83c.09.28.18.57.26.85L19.38,66.29c-.11-.35-.22-.7-.32-1.05Z"/><path class="cls-2" d="M32.35,67c.11.28.22.55.34.82L21.62,72.42c-.15-.34-.29-.68-.42-1Z"/><path class="cls-2" d="M34.59,71.91l.42.81L24.4,78.32l-.5-1Z"/><path class="cls-2" d="M37.28,76.63l.49.78L27.71,84l-.58-.9Z"/><path class="cls-2" d="M131.63,75.52l.56-.69,9.43,7.42-.69.86Z"/><path class="cls-2" d="M134.87,71.15l.49-.74L145.42,77c-.2.31-.4.62-.61.92Z"/><path class="cls-2" d="M137.69,66.52l.43-.81,10.61,5.61-.51,1Z"/><path class="cls-2" d="M140.08,61.64l.36-.85,11.07,4.63c-.14.33-.27.66-.42,1Z"/><path class="cls-2" d="M37.8,8.42l-.56.7L27.82,1.69,28.5.84Z"/><path class="cls-2" d="M34.56,12.8c-.17.24-.33.49-.49.74L24,7l.61-.92Z"/><path class="cls-2" d="M31.74,17.43l-.43.8L20.7,12.62l.52-.95Z"/><path class="cls-2" d="M29.35,22.31l-.36.85L17.92,18.53l.42-1Z"/></g></g></svg>